<svg width="1249" height="411" viewBox="0 0 1249 411" fill="none" xmlns="http://www.w3.org/2000/svg">
<path fill-rule="evenodd" clip-rule="evenodd" d="M795.715 32.6517L804.321 20.0199C804.606 19.6009 805.134 19.4125 805.627 19.5533L820.493 23.7978C820.986 23.9386 821.333 24.3766 821.353 24.8828L821.935 40.1378C821.954 40.6439 821.641 41.103 821.16 41.275L806.653 46.4585C806.172 46.6305 805.631 46.4762 805.315 46.0764L795.767 34.025C795.45 33.6252 795.429 33.0708 795.715 32.6517Z" stroke="#567860" stroke-opacity="0.1" stroke-width="2.51683"/>
<g opacity="0.88">
<path d="M272.223 68.1232C270.261 67.3434 268.02 68.2947 267.218 70.2479C266.416 72.2012 267.356 74.4167 269.318 75.1965C271.28 75.9763 273.521 75.025 274.324 73.0717C275.126 71.1185 274.185 68.903 272.223 68.1232Z" fill="#567860" fill-opacity="0.3"/>
</g>
<g opacity="0.82">
<path d="M875.549 93.3634C874.639 94.4217 874.752 96.0267 875.799 96.9482C876.847 97.8697 878.434 97.7588 879.344 96.7005C880.253 95.6421 880.141 94.0372 879.093 93.1156C878.045 92.1941 876.458 92.3051 875.549 93.3634Z" fill="#567860" fill-opacity="0.3"/>
</g>
<g opacity="0.75">
<path d="M1166.55 106.231C1166.64 104.784 1165.55 103.522 1164.1 103.412C1162.65 103.303 1161.41 104.388 1161.31 105.835C1161.22 107.283 1162.32 108.545 1163.76 108.654C1165.21 108.764 1166.46 107.679 1166.55 106.231Z" fill="#567860" fill-opacity="0.3"/>
</g>
<g opacity="0.7">
<path d="M32.5809 346.767C32.8681 348.729 34.694 350.105 36.6593 349.84C38.6246 349.576 39.9849 347.77 39.6977 345.808C39.4105 343.846 37.5846 342.47 35.6193 342.735C33.654 343 32.2937 344.805 32.5809 346.767Z" fill="#567860" fill-opacity="0.3"/>
</g>
<g opacity="0.97">
<path d="M475.168 168.951C476.485 168.437 477.148 166.948 476.648 165.625C476.149 164.302 474.677 163.647 473.36 164.161C472.043 164.675 471.38 166.164 471.879 167.487C472.378 168.81 473.851 169.465 475.168 168.951Z" fill="#567860" fill-opacity="0.3"/>
</g>
<g opacity="0.82">
<path d="M684.57 94.3545C686.096 94.1311 687.167 92.7109 686.961 91.1824C686.755 89.6539 685.351 88.5958 683.825 88.8192C682.299 89.0426 681.228 90.4628 681.434 91.9913C681.64 93.5198 683.044 94.5779 684.57 94.3545Z" fill="#567860" fill-opacity="0.3"/>
</g>
<g opacity="0.73">
<path d="M1091.79 155.37C1091.27 153.572 1089.38 152.526 1087.58 153.032C1085.77 153.537 1084.74 155.405 1085.26 157.202C1085.79 158.999 1087.68 160.046 1089.48 159.54C1091.29 159.034 1092.32 157.167 1091.79 155.37Z" fill="#567860" fill-opacity="0.3"/>
</g>
<g opacity="0.97">
<path d="M419.48 341.946C420.656 343.107 422.561 343.107 423.736 341.946C424.911 340.784 424.911 338.9 423.736 337.738C422.561 336.577 420.656 336.577 419.481 337.738C418.305 338.9 418.305 340.784 419.48 341.946Z" fill="#567860" fill-opacity="0.3"/>
</g>
<g opacity="0.77">
<path d="M647.722 361.074C648.984 361.626 650.466 361.057 651.033 359.803C651.6 358.548 651.038 357.082 649.777 356.529C648.516 355.977 647.033 356.546 646.466 357.8C645.899 359.055 646.461 360.521 647.722 361.074Z" fill="#567860" fill-opacity="0.3"/>
</g>
<g opacity="0.96">
<path d="M712.189 276.327C711.666 275.053 710.204 274.433 708.925 274.941C707.645 275.45 707.032 276.895 707.555 278.169C708.078 279.442 709.539 280.063 710.819 279.554C712.099 279.046 712.712 277.601 712.189 276.327Z" fill="#567860" fill-opacity="0.3"/>
</g>
<g opacity="0.76">
<path d="M1028.68 299.143C1029.14 297.082 1027.85 295.018 1025.8 294.531C1023.74 294.044 1021.7 295.32 1021.24 297.38C1020.77 299.44 1022.06 301.504 1024.12 301.991C1026.17 302.478 1028.21 301.203 1028.68 299.143Z" fill="#567860" fill-opacity="0.3"/>
</g>
<path fill-rule="evenodd" clip-rule="evenodd" d="M38.7671 32.6812L22.9619 27.7924C22.4375 27.6302 22.0857 27.155 22.0905 26.6153L22.2355 10.3486C22.2403 9.80895 22.6006 9.32755 23.1279 9.1562L39.0227 3.99168C39.5501 3.82033 40.1245 3.99802 40.4456 4.43181L50.1242 17.5066C50.4453 17.9404 50.44 18.5316 50.1111 18.971L40.198 32.2162C39.8691 32.6557 39.2914 32.8434 38.7671 32.6812Z" stroke="#567860" stroke-opacity="0.1" stroke-width="2.51683"/>
<path d="M923.882 196.417C923.26 197.604 923.712 199.082 924.892 199.718C926.072 200.354 927.533 199.908 928.155 198.721C928.778 197.534 928.326 196.056 927.146 195.42C925.966 194.784 924.505 195.23 923.882 196.417Z" fill="#567860" fill-opacity="0.3"/>
<path fill-rule="evenodd" clip-rule="evenodd" d="M1221.21 355.042L1226.84 341.784C1227.03 341.345 1227.49 341.08 1227.98 341.128L1242.87 342.592C1243.36 342.641 1243.78 342.992 1243.89 343.461L1247.47 357.624C1247.58 358.094 1247.38 358.576 1246.96 358.817L1234.28 366.106C1233.86 366.348 1233.32 366.295 1232.94 365.975L1221.54 356.317C1221.16 355.997 1221.03 355.482 1221.21 355.042Z" stroke="#567860" stroke-opacity="0.1" stroke-width="2.51683"/>
<path fill-rule="evenodd" clip-rule="evenodd" d="M255.155 285.068L250.598 273.017C250.447 272.617 250.57 272.164 250.904 271.894L260.954 263.772C261.287 263.503 261.755 263.478 262.112 263.711L272.88 270.743C273.237 270.976 273.403 271.414 273.29 271.827L269.895 284.295C269.782 284.709 269.417 285.004 268.99 285.027L256.124 285.701C255.697 285.723 255.306 285.468 255.155 285.068Z" stroke="#567860" stroke-opacity="0.1" stroke-width="2.51683"/>
</svg>
