<svg width="320" height="362" viewBox="0 0 320 362" fill="none" xmlns="http://www.w3.org/2000/svg">
<path fill-rule="evenodd" clip-rule="evenodd" d="M0.189424 75.8826L-8.77266 51.6633C-9.06999 50.8597 -8.81954 49.9461 -8.15228 49.4001L11.9595 32.9449C12.6268 32.399 13.559 32.345 14.2688 32.8111L35.6606 46.8606C36.3703 47.3267 36.6961 48.207 36.4675 49.041L29.5766 74.1792C29.3479 75.0132 28.617 75.6113 27.7659 75.6606L2.11529 77.1474C1.26426 77.1968 0.486763 76.6861 0.189424 75.8826Z" stroke="#90E0EF" stroke-opacity="0.72" stroke-width="5"/>
<path fill-rule="evenodd" clip-rule="evenodd" d="M298.067 142.433L300.949 116.753C301.045 115.901 301.679 115.2 302.519 115.016L327.853 109.474C328.693 109.29 329.549 109.666 329.973 110.404L342.747 132.658C343.171 133.396 343.066 134.33 342.488 134.97L325.049 154.266C324.471 154.906 323.55 155.107 322.769 154.765L299.217 144.436C298.435 144.093 297.971 143.285 298.067 142.433Z" stroke="#90E0EF" stroke-opacity="0.72" stroke-width="5"/>
<path fill-rule="evenodd" clip-rule="evenodd" d="M233.659 320.136L240.931 295.35C241.172 294.528 241.918 293.948 242.777 293.913L268.682 292.88C269.542 292.846 270.32 293.365 270.61 294.166L279.348 318.313C279.638 319.115 279.374 320.015 278.693 320.545L258.189 336.502C257.508 337.031 256.567 337.069 255.856 336.595L234.446 322.309C233.735 321.836 233.418 320.958 233.659 320.136Z" stroke="#90E0EF" stroke-opacity="0.72" stroke-width="5"/>
<path fill-rule="evenodd" clip-rule="evenodd" d="M207.337 33.9225L209.248 16.8983C209.311 16.3335 209.731 15.8685 210.289 15.7466L227.084 12.0726C227.641 11.9507 228.208 12.1995 228.489 12.689L236.958 27.4426C237.239 27.932 237.17 28.5508 236.786 28.9752L225.225 41.7675C224.842 42.1919 224.231 42.3254 223.713 42.0982L208.099 35.2508C207.581 35.0236 207.273 34.4874 207.337 33.9225Z" stroke="#90E0EF" stroke-opacity="0.72" stroke-width="5"/>
<path fill-rule="evenodd" clip-rule="evenodd" d="M26.4569 353.572L19.6489 337.868C19.4231 337.347 19.5558 336.733 19.9778 336.347L32.6962 324.719C33.1182 324.333 33.7334 324.263 34.22 324.546L48.8884 333.064C49.3751 333.346 49.6225 333.917 49.5013 334.478L45.8485 351.37C45.7273 351.93 45.265 352.353 44.7034 352.417L27.7775 354.339C27.2159 354.403 26.6828 354.093 26.4569 353.572Z" stroke="#90E0EF" stroke-opacity="0.72" stroke-width="5"/>
<path d="M23.3902 111.939C25.263 113.801 28.2996 113.801 30.1725 111.939C32.0454 110.076 32.0454 107.057 30.1726 105.195C28.2998 103.332 25.2632 103.332 23.3903 105.195C21.5174 107.057 21.5174 110.077 23.3902 111.939Z" fill="#001F47" fill-opacity="0.21"/>
<path d="M283.39 57.625C285.263 59.4873 288.3 59.4872 290.172 57.6249C292.045 55.7626 292.045 52.7432 290.173 50.8809C288.3 49.0187 285.263 49.0187 283.39 50.8811C281.517 52.7434 281.517 55.7628 283.39 57.625Z" fill="#001F47" fill-opacity="0.21"/>
<path d="M14.3911 286.116C16.264 287.978 19.3005 287.978 21.1734 286.116C23.0463 284.254 23.0464 281.234 21.1735 279.372C19.3007 277.51 16.2642 277.51 14.3913 279.372C12.5184 281.234 12.5183 284.254 14.3911 286.116Z" fill="#001F47" fill-opacity="0.21"/>
<path d="M187.391 337.412C189.264 339.275 192.301 339.275 194.173 337.412C196.046 335.55 196.046 332.53 194.174 330.668C192.301 328.806 189.264 328.806 187.391 330.668C185.518 332.53 185.518 335.55 187.391 337.412Z" fill="#001F47" fill-opacity="0.21"/>
<path d="M67.3911 10.1171C69.264 11.9796 72.3005 11.9795 74.1734 10.117C76.0463 8.25444 76.0464 5.23474 74.1735 3.37228C72.3007 1.50982 69.2642 1.50988 67.3913 3.37241C65.5184 5.23494 65.5183 8.25464 67.3911 10.1171Z" fill="#001F47" fill-opacity="0.21"/>
<path d="M276.39 242.694C278.263 244.557 281.3 244.557 283.172 242.694C285.045 240.832 285.045 237.812 283.173 235.95C281.3 234.087 278.263 234.087 276.39 235.95C274.517 237.812 274.517 240.832 276.39 242.694Z" fill="#001F47" fill-opacity="0.21"/>
</svg>
