<svg width="981" height="321" viewBox="0 0 981 321" fill="none" xmlns="http://www.w3.org/2000/svg">
<path fill-rule="evenodd" clip-rule="evenodd" d="M624.542 24.0573L631.297 14.1428C631.521 13.8139 631.935 13.666 632.322 13.7766L643.991 17.108C644.378 17.2185 644.65 17.5623 644.665 17.9596L645.122 29.9329C645.137 30.3302 644.892 30.6905 644.514 30.8255L633.128 34.894C632.75 35.029 632.326 34.9079 632.077 34.5941L624.583 25.1352C624.335 24.8214 624.318 24.3862 624.542 24.0573Z" stroke="#567860" stroke-opacity="0.1" stroke-width="1.97542"/>
<g opacity="0.88">
<path d="M213.663 51.8987C212.123 51.2867 210.364 52.0333 209.735 53.5664C209.105 55.0995 209.843 56.8384 211.383 57.4504C212.923 58.0624 214.682 57.3158 215.312 55.7827C215.941 54.2497 215.203 52.5107 213.663 51.8987Z" fill="#567860" fill-opacity="0.3"/>
</g>
<g opacity="0.82">
<path d="M687.203 71.7096C686.489 72.5402 686.577 73.8 687.399 74.5232C688.222 75.2465 689.467 75.1594 690.181 74.3288C690.895 73.4981 690.807 72.2384 689.984 71.5151C689.162 70.7918 687.916 70.8789 687.203 71.7096Z" fill="#567860" fill-opacity="0.3"/>
</g>
<g opacity="0.75">
<path d="M915.605 81.8082C915.678 80.672 914.817 79.6814 913.682 79.5955C912.547 79.5096 911.567 80.3609 911.494 81.4971C911.421 82.6332 912.283 83.6238 913.418 83.7097C914.553 83.7957 915.533 82.9443 915.605 81.8082Z" fill="#567860" fill-opacity="0.3"/>
</g>
<g opacity="0.7">
<path d="M25.5723 270.601C25.7977 272.141 27.2308 273.221 28.7733 273.014C30.3158 272.806 31.3835 271.389 31.1581 269.849C30.9327 268.309 29.4996 267.229 27.9571 267.437C26.4146 267.645 25.3468 269.061 25.5723 270.601Z" fill="#567860" fill-opacity="0.3"/>
</g>
<g opacity="0.97">
<path d="M372.951 131.036C373.985 130.633 374.505 129.464 374.113 128.426C373.721 127.388 372.566 126.873 371.532 127.277C370.499 127.68 369.978 128.849 370.37 129.887C370.762 130.925 371.917 131.44 372.951 131.036Z" fill="#567860" fill-opacity="0.3"/>
</g>
<g opacity="0.82">
<path d="M537.307 72.4876C538.505 72.3123 539.344 71.1976 539.183 69.9979C539.021 68.7981 537.919 67.9677 536.721 68.143C535.524 68.3183 534.684 69.433 534.845 70.6327C535.007 71.8325 536.109 72.6629 537.307 72.4876Z" fill="#567860" fill-opacity="0.3"/>
</g>
<g opacity="0.73">
<path d="M856.929 120.376C856.516 118.965 855.033 118.144 853.618 118.541C852.203 118.938 851.39 120.403 851.804 121.814C852.217 123.225 853.699 124.046 855.114 123.649C856.53 123.252 857.342 121.787 856.929 120.376Z" fill="#567860" fill-opacity="0.3"/>
</g>
<g opacity="0.97">
<path d="M329.242 266.817C330.165 267.729 331.66 267.729 332.583 266.817C333.505 265.905 333.505 264.427 332.583 263.515C331.66 262.603 330.165 262.603 329.243 263.515C328.32 264.427 328.32 265.905 329.242 266.817Z" fill="#567860" fill-opacity="0.3"/>
</g>
<g opacity="0.77">
<path d="M508.386 281.83C509.376 282.264 510.539 281.818 510.984 280.833C511.43 279.848 510.988 278.698 509.998 278.264C509.009 277.83 507.845 278.276 507.4 279.261C506.955 280.246 507.396 281.396 508.386 281.83Z" fill="#567860" fill-opacity="0.3"/>
</g>
<g opacity="0.96">
<path d="M558.985 215.313C558.574 214.313 557.427 213.826 556.423 214.226C555.418 214.625 554.937 215.759 555.347 216.759C555.758 217.758 556.905 218.245 557.91 217.846C558.914 217.447 559.395 216.313 558.985 215.313Z" fill="#567860" fill-opacity="0.3"/>
</g>
<g opacity="0.76">
<path d="M807.392 233.221C807.755 231.604 806.743 229.984 805.13 229.602C803.517 229.22 801.915 230.221 801.552 231.838C801.188 233.454 802.201 235.075 803.814 235.457C805.426 235.839 807.028 234.838 807.392 233.221Z" fill="#567860" fill-opacity="0.3"/>
</g>
<path fill-rule="evenodd" clip-rule="evenodd" d="M30.4277 24.0811L18.0225 20.2439C17.6109 20.1166 17.3348 19.7436 17.3386 19.32L17.4524 6.55265C17.4562 6.12906 17.739 5.75122 18.1529 5.61673L30.6284 1.56319C31.0423 1.4287 31.4932 1.56816 31.7452 1.90864L39.3417 12.1708C39.5938 12.5113 39.5896 12.9753 39.3315 13.3202L31.5509 23.7161C31.2927 24.061 30.8393 24.2084 30.4277 24.0811Z" stroke="#567860" stroke-opacity="0.1" stroke-width="1.97542"/>
<path d="M725.139 152.594C724.65 153.526 725.005 154.686 725.931 155.185C726.857 155.684 728.004 155.333 728.492 154.402C728.981 153.47 728.626 152.31 727.7 151.811C726.774 151.312 725.627 151.662 725.139 152.594Z" fill="#567860" fill-opacity="0.3"/>
<path fill-rule="evenodd" clip-rule="evenodd" d="M958.51 277.096L962.927 266.69C963.073 266.345 963.435 266.137 963.822 266.175L975.505 267.324C975.892 267.362 976.218 267.638 976.311 268.006L979.114 279.122C979.207 279.491 979.046 279.869 978.716 280.059L968.766 285.78C968.436 285.97 968.012 285.928 967.715 285.677L958.762 278.097C958.465 277.845 958.363 277.441 958.51 277.096Z" stroke="#567860" stroke-opacity="0.1" stroke-width="1.97542"/>
<path fill-rule="evenodd" clip-rule="evenodd" d="M200.266 222.175L196.69 212.716C196.571 212.402 196.668 212.046 196.93 211.835L204.818 205.46C205.079 205.248 205.446 205.229 205.727 205.412L214.178 210.931C214.459 211.114 214.589 211.458 214.5 211.782L211.836 221.568C211.747 221.893 211.461 222.125 211.126 222.142L201.027 222.671C200.692 222.689 200.385 222.488 200.266 222.175Z" stroke="#567860" stroke-opacity="0.1" stroke-width="1.97542"/>
</svg>
