<svg width="1405" height="711" viewBox="0 0 1405 711" fill="none" xmlns="http://www.w3.org/2000/svg">
<g opacity="0.88">
<path d="M266.887 217.112C264.034 215.966 260.777 217.364 259.61 220.235C258.444 223.105 259.811 226.361 262.664 227.507C265.517 228.653 268.774 227.255 269.941 224.385C271.107 221.514 269.74 218.258 266.887 217.112Z" fill="#001F47" fill-opacity="0.21"/>
</g>
<g opacity="0.82">
<path d="M1091.66 211.154C1090.34 212.709 1090.5 215.068 1092.03 216.422C1093.55 217.777 1095.86 217.614 1097.18 216.058C1098.5 214.503 1098.34 212.144 1096.82 210.79C1095.29 209.435 1092.99 209.598 1091.66 211.154Z" fill="#001F47" fill-opacity="0.21"/>
</g>
<g opacity="0.87">
<path d="M1148.78 250.962C1147.87 252.707 1148.53 254.879 1150.24 255.813C1151.96 256.748 1154.08 256.092 1154.99 254.347C1155.89 252.603 1155.24 250.431 1153.52 249.496C1151.81 248.561 1149.68 249.218 1148.78 250.962Z" fill="#001F47" fill-opacity="0.21"/>
</g>
<g opacity="0.95">
<path d="M279.041 355.161C276.867 354.503 274.558 355.744 273.882 357.934C273.206 360.123 274.42 362.432 276.594 363.09C278.767 363.748 281.077 362.506 281.753 360.317C282.428 358.127 281.214 355.819 279.041 355.161Z" fill="#001F47" fill-opacity="0.21"/>
</g>
<g opacity="0.96">
<path d="M884.105 366.037C887.048 366.385 889.74 364.259 890.118 361.288C890.496 358.317 888.416 355.626 885.473 355.278C882.531 354.93 879.839 357.056 879.461 360.027C879.083 362.998 881.162 365.689 884.105 366.037Z" fill="#001F47" fill-opacity="0.21"/>
</g>
<g opacity="0.75">
<path d="M1322.35 242.235C1322.49 240.108 1320.89 238.253 1318.79 238.092C1316.69 237.931 1314.87 239.525 1314.74 241.653C1314.6 243.78 1316.2 245.635 1318.3 245.796C1320.4 245.957 1322.22 244.363 1322.35 242.235Z" fill="#001F47" fill-opacity="0.21"/>
</g>
<g opacity="0.7">
<path d="M139.62 513.695C140.037 516.578 142.692 518.601 145.549 518.212C148.406 517.822 150.384 515.169 149.966 512.286C149.549 509.402 146.894 507.38 144.037 507.769C141.18 508.158 139.202 510.811 139.62 513.695Z" fill="#001F47" fill-opacity="0.21"/>
</g>
<g opacity="0.97">
<path d="M589.496 433.93C591.411 433.174 592.375 430.986 591.649 429.042C590.924 427.098 588.783 426.134 586.869 426.89C584.954 427.646 583.99 429.834 584.716 431.778C585.442 433.722 587.582 434.686 589.496 433.93Z" fill="#001F47" fill-opacity="0.21"/>
</g>
<g opacity="0.82">
<path d="M914.94 402.741C917.159 402.413 918.714 400.326 918.415 398.079C918.116 395.833 916.074 394.278 913.856 394.606C911.637 394.934 910.082 397.022 910.381 399.268C910.68 401.515 912.721 403.07 914.94 402.741Z" fill="#001F47" fill-opacity="0.21"/>
</g>
<g opacity="0.73">
<path d="M1258.98 370.301C1258.22 367.66 1255.47 366.121 1252.85 366.865C1250.23 367.608 1248.72 370.352 1249.49 372.994C1250.26 375.635 1253 377.173 1255.62 376.43C1258.24 375.686 1259.75 372.942 1258.98 370.301Z" fill="#001F47" fill-opacity="0.21"/>
</g>
<g opacity="0.97">
<path d="M362.71 553.411C364.419 555.119 367.189 555.119 368.897 553.411C370.606 551.704 370.606 548.935 368.897 547.228C367.189 545.521 364.419 545.521 362.711 547.228C361.002 548.936 361.002 551.704 362.71 553.411Z" fill="#001F47" fill-opacity="0.21"/>
</g>
<g opacity="0.77">
<path d="M760.448 604.6C762.282 605.412 764.437 604.576 765.261 602.732C766.086 600.888 765.268 598.734 763.435 597.922C761.601 597.109 759.446 597.945 758.622 599.789C757.797 601.634 758.615 603.787 760.448 604.6Z" fill="#001F47" fill-opacity="0.21"/>
</g>
<g opacity="0.96">
<path d="M992.327 485.025C991.567 483.153 989.442 482.242 987.582 482.989C985.721 483.736 984.829 485.86 985.59 487.732C986.35 489.604 988.475 490.516 990.336 489.768C992.196 489.021 993.088 486.898 992.327 485.025Z" fill="#001F47" fill-opacity="0.21"/>
</g>
<g opacity="0.76">
<path d="M1314.28 513.58C1314.95 510.552 1313.08 507.518 1310.09 506.803C1307.11 506.087 1304.14 507.962 1303.46 510.989C1302.79 514.017 1304.67 517.051 1307.65 517.767C1310.64 518.482 1313.61 516.608 1314.28 513.58Z" fill="#001F47" fill-opacity="0.21"/>
</g>
<g opacity="0.9">
<path fill-rule="evenodd" clip-rule="evenodd" d="M112.097 376.026L83.3134 367.115C82.3584 366.82 81.7189 365.95 81.7294 364.961L82.0455 335.141C82.056 334.151 82.714 333.268 83.6755 332.952L112.655 323.433C113.616 323.117 114.662 323.441 115.246 324.236L132.84 348.172C133.424 348.967 133.412 350.05 132.811 350.857L114.706 375.17C114.105 375.976 113.052 376.322 112.097 376.026Z" stroke="#90E0EF" stroke-opacity="0.72" stroke-width="5"/>
</g>
<g opacity="0.83">
<path fill-rule="evenodd" clip-rule="evenodd" d="M320.525 625.955L312.349 603.748C312.078 603.012 312.307 602.174 312.915 601.673L331.263 586.586C331.871 586.085 332.722 586.035 333.369 586.463L352.884 599.345C353.532 599.772 353.829 600.579 353.62 601.344L347.334 624.393C347.125 625.158 346.459 625.706 345.682 625.751L322.282 627.115C321.506 627.16 320.796 626.692 320.525 625.955Z" stroke="#90E0EF" stroke-opacity="0.72" stroke-width="5"/>
</g>
<path fill-rule="evenodd" clip-rule="evenodd" d="M1355.7 587.605L1365.63 558.299C1365.96 557.326 1366.76 556.736 1367.62 556.837L1393.43 559.867C1394.29 559.968 1395 560.736 1395.2 561.771L1401.23 592.95C1401.43 593.985 1401.07 595.05 1400.34 595.589L1378.25 611.828C1377.51 612.367 1376.57 612.257 1375.92 611.556L1356.24 590.412C1355.59 589.711 1355.37 588.578 1355.7 587.605Z" stroke="#90E0EF" stroke-width="5"/>
</svg>
