<svg width="1366" height="562" viewBox="0 0 1366 562" fill="none" xmlns="http://www.w3.org/2000/svg">
<path fill-rule="evenodd" clip-rule="evenodd" d="M1128.64 27.1709L1144.86 3.35901C1145.4 2.569 1146.39 2.21385 1147.32 2.47931L1175.35 10.4806C1176.28 10.7461 1176.93 11.5718 1176.97 12.5258L1178.06 41.2828C1178.1 42.2369 1177.51 43.1024 1176.6 43.4265L1149.26 53.198C1148.35 53.5222 1147.33 53.2314 1146.73 52.4777L1128.74 29.7598C1128.14 29.0061 1128.1 27.9609 1128.64 27.1709Z" stroke="#567860" stroke-opacity="0.3" stroke-width="4.74445"/>
<g opacity="0.88">
<path d="M203.417 118.5C200.449 117.321 197.061 118.759 195.848 121.713C194.635 124.667 196.057 128.017 199.024 129.196C201.991 130.375 205.38 128.937 206.593 125.983C207.806 123.029 206.384 119.679 203.417 118.5Z" fill="#567860" fill-opacity="0.3"/>
</g>
<g opacity="0.82">
<path d="M1061.31 112.37C1059.93 113.97 1060.1 116.397 1061.69 117.791C1063.27 119.184 1065.67 119.017 1067.05 117.416C1068.42 115.816 1068.25 113.389 1066.67 111.995C1065.08 110.602 1062.68 110.77 1061.31 112.37Z" fill="#567860" fill-opacity="0.3"/>
</g>
<g opacity="0.87">
<path d="M1120.71 153.33C1119.77 155.125 1120.46 157.359 1122.24 158.321C1124.02 159.283 1126.23 158.608 1127.18 156.813C1128.12 155.018 1127.43 152.783 1125.65 151.821C1123.87 150.859 1121.66 151.535 1120.71 153.33Z" fill="#567860" fill-opacity="0.3"/>
</g>
<g opacity="0.75">
<path d="M1301.26 144.348C1301.4 142.159 1299.74 140.251 1297.55 140.085C1295.37 139.919 1293.48 141.56 1293.34 143.749C1293.2 145.937 1294.86 147.846 1297.05 148.012C1299.23 148.177 1301.12 146.537 1301.26 144.348Z" fill="#567860" fill-opacity="0.3"/>
</g>
<g opacity="0.7">
<path d="M71.0401 423.66C71.4744 426.627 74.2355 428.707 77.2074 428.307C80.1792 427.907 82.2362 425.177 81.802 422.21C81.3677 419.243 78.6065 417.162 75.6347 417.563C72.6629 417.963 70.6058 420.693 71.0401 423.66Z" fill="#567860" fill-opacity="0.3"/>
</g>
<g opacity="0.97">
<path d="M538.979 341.588C540.97 340.81 541.973 338.558 541.218 336.558C540.463 334.558 538.237 333.567 536.245 334.344C534.254 335.122 533.251 337.373 534.006 339.374C534.761 341.374 536.987 342.365 538.979 341.588Z" fill="#567860" fill-opacity="0.3"/>
</g>
<g opacity="0.82">
<path d="M877.49 309.497C879.798 309.159 881.416 307.012 881.105 304.7C880.794 302.389 878.67 300.789 876.363 301.127C874.055 301.464 872.437 303.612 872.748 305.923C873.06 308.235 875.183 309.835 877.49 309.497Z" fill="#567860" fill-opacity="0.3"/>
</g>
<g opacity="0.73">
<path d="M1235.35 276.119C1234.55 273.401 1231.69 271.818 1228.97 272.583C1226.24 273.349 1224.67 276.172 1225.47 278.89C1226.27 281.607 1229.12 283.19 1231.85 282.425C1234.58 281.66 1236.14 278.837 1235.35 276.119Z" fill="#567860" fill-opacity="0.3"/>
</g>
<g opacity="0.97">
<path d="M303.088 464.524C304.865 466.28 307.746 466.28 309.523 464.523C311.3 462.767 311.3 459.918 309.523 458.161C307.746 456.405 304.865 456.405 303.088 458.162C301.311 459.918 301.311 462.767 303.088 464.524Z" fill="#567860" fill-opacity="0.3"/>
</g>
<g opacity="0.77">
<path d="M716.795 517.193C718.702 518.029 720.943 517.169 721.801 515.271C722.659 513.374 721.808 511.158 719.901 510.321C717.994 509.485 715.753 510.346 714.895 512.243C714.037 514.141 714.888 516.357 716.795 517.193Z" fill="#567860" fill-opacity="0.3"/>
</g>
<g opacity="0.96">
<path d="M957.983 394.161C957.192 392.235 954.982 391.297 953.046 392.066C951.111 392.835 950.184 395.02 950.975 396.946C951.766 398.872 953.976 399.81 955.911 399.041C957.846 398.272 958.774 396.087 957.983 394.161Z" fill="#567860" fill-opacity="0.3"/>
</g>
<g opacity="0.76">
<path d="M1292.86 423.542C1293.56 420.427 1291.61 417.305 1288.51 416.569C1285.4 415.832 1282.31 417.761 1281.61 420.876C1280.91 423.991 1282.86 427.113 1285.97 427.849C1289.08 428.585 1292.16 426.657 1292.86 423.542Z" fill="#567860" fill-opacity="0.3"/>
</g>
<path fill-rule="evenodd" clip-rule="evenodd" d="M44.4782 285.751L14.684 276.535C13.6955 276.229 13.0324 275.334 13.0415 274.316L13.3147 243.652C13.3238 242.635 14.003 241.727 14.9971 241.404L44.9601 231.669C45.9542 231.346 47.0371 231.681 47.6424 232.499L65.8873 257.146C66.4926 257.963 66.4827 259.078 65.8627 259.906L47.1757 284.875C46.5557 285.703 45.4667 286.057 44.4782 285.751Z" stroke="#567860" stroke-opacity="0.3" stroke-width="4.74445"/>
<path fill-rule="evenodd" clip-rule="evenodd" d="M259.454 538.791L250.864 516.073C250.579 515.32 250.812 514.465 251.44 513.957L270.385 498.646C271.014 498.138 271.895 498.092 272.569 498.532L292.867 511.786C293.541 512.226 293.853 513.052 293.641 513.831L287.241 537.334C287.029 538.114 286.34 538.671 285.535 538.713L261.282 539.984C260.477 540.026 259.739 539.544 259.454 538.791Z" stroke="#567860" stroke-opacity="0.3" stroke-width="4.74445"/>
<path fill-rule="evenodd" clip-rule="evenodd" d="M1326.87 95.4681L1337.47 70.4763C1337.83 69.6472 1338.7 69.1478 1339.63 69.2393L1367.68 71.9987C1368.61 72.0903 1369.4 72.7519 1369.62 73.6377L1376.35 100.335C1376.58 101.221 1376.19 102.129 1375.4 102.585L1351.5 116.325C1350.71 116.781 1349.69 116.681 1348.97 116.077L1327.47 97.8716C1326.76 97.2676 1326.51 96.2973 1326.87 95.4681Z" stroke="#567860" stroke-opacity="0.3" stroke-width="4.74445"/>
</svg>
