<svg width="161" height="49" viewBox="0 0 161 49" fill="none" xmlns="http://www.w3.org/2000/svg">
<path d="M161 23.2012H0V46.402H161V23.2012Z" fill="#44746C"/>
<path fill-rule="evenodd" clip-rule="evenodd" d="M110.989 12.4427L120.86 18.3718V13.4176L110.989 7.41113V12.4427Z" fill="#44746C"/>
<path fill-rule="evenodd" clip-rule="evenodd" d="M143.635 12.3798L135.592 18.3112V13.3547L143.635 7.35059V12.3798Z" fill="#44746C"/>
<path fill-rule="evenodd" clip-rule="evenodd" d="M120.86 1.58203L135.592 13.384V18.289L120.86 6.47062V1.58203Z" fill="#44746C"/>
<path opacity="0.8" fill-rule="evenodd" clip-rule="evenodd" d="M143.635 7.39006V12.4193L135.592 6.41515V1.46094L143.635 7.39006Z" fill="#44746C"/>
<path opacity="0.8" fill-rule="evenodd" clip-rule="evenodd" d="M110.989 7.47109L120.86 1.54199V6.49617L110.989 12.5003V7.47109Z" fill="#44746C"/>
<path d="M12.87 10.1086C12.87 9.14893 13.0843 8.29176 13.5129 7.53709C13.9508 6.77309 14.5424 6.18146 15.2878 5.7622C16.0424 5.33362 16.8856 5.11933 17.8173 5.11933C18.9074 5.11933 19.8624 5.39884 20.6823 5.95786C21.5022 6.51688 22.0752 7.29019 22.4013 8.27779H20.1512C19.9276 7.81194 19.6108 7.46255 19.2009 7.22962C18.8003 6.9967 18.3344 6.88024 17.8034 6.88024C17.235 6.88024 16.7272 7.01533 16.28 7.28553C15.8421 7.5464 15.4974 7.91908 15.2458 8.40357C15.0036 8.88805 14.8825 9.45639 14.8825 10.1086C14.8825 10.7514 15.0036 11.3198 15.2458 11.8136C15.4974 12.2981 15.8421 12.6754 16.28 12.9456C16.7272 13.2065 17.235 13.3369 17.8034 13.3369C18.3344 13.3369 18.8003 13.2205 19.2009 12.9875C19.6108 12.7453 19.9276 12.3912 20.1512 11.9254H22.4013C22.0752 12.9223 21.5022 13.7003 20.6823 14.2593C19.8717 14.809 18.9167 15.0839 17.8173 15.0839C16.8856 15.0839 16.0424 14.8742 15.2878 14.455C14.5424 14.0264 13.9508 13.4347 13.5129 12.6801C13.0843 11.9254 12.87 11.0682 12.87 10.1086ZM30.054 13.1413H26.1688L25.5259 15H23.4715L26.9794 5.23113H29.2574L32.7652 15H30.6968L30.054 13.1413ZM29.5229 11.576L28.1114 7.49516L26.6998 11.576H29.5229ZM36.033 13.4487H39.2473V15H34.0764V5.24511H36.033V13.4487ZM50.9346 8.26381C50.9346 8.78556 50.8088 9.27471 50.5572 9.73124C50.315 10.1878 49.9283 10.5558 49.3972 10.8353C48.8755 11.1148 48.214 11.2546 47.4127 11.2546H45.7776V15H43.821V5.24511H47.4127C48.1674 5.24511 48.8103 5.37554 49.3413 5.63642C49.8724 5.8973 50.2684 6.256 50.5293 6.71253C50.7995 7.16906 50.9346 7.68616 50.9346 8.26381ZM47.3289 9.67534C47.8693 9.67534 48.2699 9.55422 48.5308 9.31197C48.7916 9.06042 48.9221 8.71103 48.9221 8.26381C48.9221 7.31348 48.391 6.83831 47.3289 6.83831H45.7776V9.67534H47.3289ZM56.8518 15.0978C55.9387 15.0978 55.1002 14.8835 54.3362 14.455C53.5722 14.0264 52.9666 13.4347 52.5194 12.6801C52.0721 11.9161 51.8485 11.0543 51.8485 10.0946C51.8485 9.14427 52.0721 8.29176 52.5194 7.53709C52.9666 6.77309 53.5722 6.1768 54.3362 5.74822C55.1002 5.31964 55.9387 5.10535 56.8518 5.10535C57.7741 5.10535 58.6127 5.31964 59.3673 5.74822C60.1313 6.1768 60.7323 6.77309 61.1702 7.53709C61.6174 8.29176 61.841 9.14427 61.841 10.0946C61.841 11.0543 61.6174 11.9161 61.1702 12.6801C60.7323 13.4347 60.1313 14.0264 59.3673 14.455C58.6034 14.8835 57.7648 15.0978 56.8518 15.0978ZM56.8518 13.3509C57.4387 13.3509 57.9558 13.2205 58.403 12.9596C58.8503 12.6894 59.1996 12.3074 59.4512 11.8136C59.7028 11.3198 59.8285 10.7468 59.8285 10.0946C59.8285 9.44241 59.7028 8.87407 59.4512 8.38959C59.1996 7.89579 58.8503 7.51845 58.403 7.25758C57.9558 6.9967 57.4387 6.86626 56.8518 6.86626C56.2648 6.86626 55.743 6.9967 55.2865 7.25758C54.8393 7.51845 54.4899 7.89579 54.2383 8.38959C53.9868 8.87407 53.861 9.44241 53.861 10.0946C53.861 10.7468 53.9868 11.3198 54.2383 11.8136C54.4899 12.3074 54.8393 12.6894 55.2865 12.9596C55.743 13.2205 56.2648 13.3509 56.8518 13.3509ZM65.2532 13.4487H68.4676V15H63.2966V5.24511H65.2532V13.4487ZM77.4676 5.24511L74.1694 11.604V15H72.2128V11.604L68.9006 5.24511H71.1087L73.205 9.70329L75.2874 5.24511H77.4676ZM85.2942 15.0978C84.614 15.0978 83.9991 14.9814 83.4494 14.7484C82.909 14.5155 82.4804 14.1801 82.1637 13.7422C81.8469 13.3043 81.6838 12.7872 81.6745 12.1909H83.7709C83.7988 12.5916 83.9386 12.9083 84.1901 13.1413C84.451 13.3742 84.805 13.4906 85.2523 13.4906C85.7088 13.4906 86.0675 13.3835 86.3284 13.1692C86.5892 12.9456 86.7197 12.6568 86.7197 12.3027C86.7197 12.0139 86.6312 11.7763 86.4541 11.59C86.2771 11.4036 86.0535 11.2592 85.7833 11.1567C85.5224 11.0449 85.1591 10.9238 84.6932 10.7934C84.0597 10.607 83.5426 10.4254 83.142 10.2483C82.7506 10.062 82.4106 9.78714 82.1217 9.42378C81.8422 9.0511 81.7025 8.5573 81.7025 7.94238C81.7025 7.36472 81.8469 6.8616 82.1357 6.43302C82.4245 6.00444 82.8298 5.67835 83.3516 5.45474C83.8733 5.22181 84.4696 5.10535 85.1404 5.10535C86.1467 5.10535 86.9619 5.35225 87.5862 5.84605C88.2197 6.33054 88.5691 7.01068 88.6343 7.88647H86.4821C86.4635 7.55106 86.319 7.27621 86.0489 7.06192C85.788 6.83831 85.4386 6.72651 85.0007 6.72651C84.6187 6.72651 84.3112 6.82434 84.0783 7.01999C83.8547 7.21565 83.7429 7.49982 83.7429 7.8725C83.7429 8.13337 83.8268 8.35232 83.9945 8.52935C84.1715 8.69705 84.3858 8.83681 84.6373 8.94861C84.8982 9.0511 85.2616 9.17222 85.7274 9.31197C86.361 9.49831 86.8781 9.68465 87.2787 9.87099C87.6793 10.0573 88.0241 10.3368 88.3129 10.7095C88.6017 11.0822 88.7461 11.5713 88.7461 12.177C88.7461 12.6987 88.611 13.1832 88.3408 13.6304C88.0706 14.0776 87.6747 14.4363 87.1529 14.7065C86.6312 14.9674 86.0116 15.0978 85.2942 15.0978ZM92.399 13.4487H95.6133V15H90.4424V5.24511H92.399V13.4487ZM101.385 15.0978C100.472 15.0978 99.6334 14.8835 98.8694 14.455C98.1054 14.0264 97.4998 13.4347 97.0526 12.6801C96.6054 11.9161 96.3818 11.0543 96.3818 10.0946C96.3818 9.14427 96.6054 8.29176 97.0526 7.53709C97.4998 6.77309 98.1054 6.1768 98.8694 5.74822C99.6334 5.31964 100.472 5.10535 101.385 5.10535C102.307 5.10535 103.146 5.31964 103.901 5.74822C104.665 6.1768 105.266 6.77309 105.703 7.53709C106.151 8.29176 106.374 9.14427 106.374 10.0946C106.374 11.0543 106.151 11.9161 105.703 12.6801C105.266 13.4347 104.665 14.0264 103.901 14.455C103.137 14.8835 102.298 15.0978 101.385 15.0978ZM101.385 13.3509C101.972 13.3509 102.489 13.2205 102.936 12.9596C103.383 12.6894 103.733 12.3074 103.984 11.8136C104.236 11.3198 104.362 10.7468 104.362 10.0946C104.362 9.44241 104.236 8.87407 103.984 8.38959C103.733 7.89579 103.383 7.51845 102.936 7.25758C102.489 6.9967 101.972 6.86626 101.385 6.86626C100.798 6.86626 100.276 6.9967 99.8197 7.25758C99.3725 7.51845 99.0231 7.89579 98.7716 8.38959C98.52 8.87407 98.3942 9.44241 98.3942 10.0946C98.3942 10.7468 98.52 11.3198 98.7716 11.8136C99.0231 12.3074 99.3725 12.6894 99.8197 12.9596C100.276 13.2205 100.798 13.3509 101.385 13.3509Z" fill="#44746C"/>
<path d="M5.30724 35.5927C5.30724 34.3759 5.57895 33.289 6.12239 32.3321C6.67764 31.3633 7.42781 30.6132 8.37292 30.0815C9.32983 29.5381 10.399 29.2664 11.5804 29.2664C12.9626 29.2664 14.1735 29.6208 15.2131 30.3296C16.2527 31.0385 16.9793 32.019 17.3927 33.2713H14.5397C14.2562 32.6806 13.8545 32.2376 13.3347 31.9422C12.8267 31.6469 12.236 31.4992 11.5626 31.4992C10.842 31.4992 10.1981 31.6705 9.63109 32.0131C9.07584 32.3439 8.63873 32.8164 8.31975 33.4308C8.0126 34.0451 7.85902 34.7657 7.85902 35.5927C7.85902 36.4078 8.0126 37.1285 8.31975 37.7546C8.63873 38.3689 9.07584 38.8474 9.63109 39.19C10.1981 39.5208 10.842 39.6862 11.5626 39.6862C12.236 39.6862 12.8267 39.5385 13.3347 39.2431C13.8545 38.936 14.2562 38.4871 14.5397 37.8964H17.3927C16.9793 39.1604 16.2527 40.1469 15.2131 40.8557C14.1853 41.5527 12.9744 41.9012 11.5804 41.9012C10.399 41.9012 9.32983 41.6354 8.37292 41.1038C7.42781 40.5604 6.67764 39.8102 6.12239 38.8533C5.57895 37.8964 5.30724 36.8095 5.30724 35.5927ZM23.7824 41.919C22.92 41.919 22.1403 41.7713 21.4433 41.4759C20.7581 41.1806 20.2147 40.7553 19.813 40.2001C19.4113 39.6448 19.2046 38.9891 19.1928 38.2331H21.8509C21.8863 38.7411 22.0635 39.1427 22.3825 39.4381C22.7133 39.7334 23.1622 39.8811 23.7293 39.8811C24.3082 39.8811 24.763 39.7452 25.0938 39.4735C25.4246 39.19 25.59 38.8238 25.59 38.3748C25.59 38.0086 25.4777 37.7073 25.2533 37.4711C25.0288 37.2348 24.7453 37.0517 24.4027 36.9217C24.0719 36.78 23.6111 36.6264 23.0205 36.461C22.2171 36.2247 21.5614 35.9943 21.0535 35.7699C20.5573 35.5336 20.1261 35.1851 19.7598 34.7244C19.4054 34.2518 19.2282 33.6257 19.2282 32.846C19.2282 32.1135 19.4113 31.4756 19.7776 30.9321C20.1438 30.3887 20.6577 29.9752 21.3193 29.6917C21.9808 29.3963 22.7369 29.2487 23.5875 29.2487C24.8634 29.2487 25.8971 29.5617 26.6886 30.1879C27.492 30.8022 27.935 31.6646 28.0177 32.7751H25.2887C25.2651 32.3498 25.082 32.0013 24.7394 31.7296C24.4086 31.446 23.9656 31.3043 23.4103 31.3043C22.9259 31.3043 22.5361 31.4283 22.2407 31.6764C21.9572 31.9245 21.8154 32.2848 21.8154 32.7574C21.8154 33.0882 21.9218 33.3658 22.1344 33.5902C22.3589 33.8029 22.6306 33.9801 22.9496 34.1219C23.2804 34.2518 23.7411 34.4054 24.3318 34.5826C25.1351 34.8189 25.7908 35.0552 26.2988 35.2914C26.8068 35.5277 27.2439 35.8821 27.6101 36.3547C27.9763 36.8272 28.1595 37.4474 28.1595 38.2153C28.1595 38.8769 27.9882 39.4912 27.6456 40.0583C27.303 40.6254 26.8009 41.0802 26.1393 41.4228C25.4777 41.7536 24.6921 41.919 23.7824 41.919ZM43.8007 36.5673H40.4515V40.0051H38.1124V36.5673H34.7632V34.4054H38.1124V30.9676H40.4515V34.4054H43.8007V36.5673ZM54.9667 41.919C54.1043 41.919 53.3246 41.7713 52.6276 41.4759C51.9424 41.1806 51.3989 40.7553 50.9973 40.2001C50.5956 39.6448 50.3889 38.9891 50.3771 38.2331H53.0352C53.0706 38.7411 53.2478 39.1427 53.5668 39.4381C53.8976 39.7334 54.3465 39.8811 54.9136 39.8811C55.4924 39.8811 55.9473 39.7452 56.278 39.4735C56.6088 39.19 56.7742 38.8238 56.7742 38.3748C56.7742 38.0086 56.662 37.7073 56.4375 37.4711C56.2131 37.2348 55.9295 37.0517 55.5869 36.9217C55.2562 36.78 54.7954 36.6264 54.2047 36.461C53.4014 36.2247 52.7457 35.9943 52.2377 35.7699C51.7415 35.5336 51.3103 35.1851 50.9441 34.7244C50.5897 34.2518 50.4125 33.6257 50.4125 32.846C50.4125 32.1135 50.5956 31.4756 50.9618 30.9321C51.3281 30.3887 51.842 29.9752 52.5035 29.6917C53.1651 29.3963 53.9212 29.2487 54.7718 29.2487C56.0477 29.2487 57.0814 29.5617 57.8729 30.1879C58.6762 30.8022 59.1193 31.6646 59.202 32.7751H56.473C56.4493 32.3498 56.2662 32.0013 55.9236 31.7296C55.5928 31.446 55.1498 31.3043 54.5946 31.3043C54.1102 31.3043 53.7204 31.4283 53.425 31.6764C53.1415 31.9245 52.9997 32.2848 52.9997 32.7574C52.9997 33.0882 53.106 33.3658 53.3187 33.5902C53.5431 33.8029 53.8149 33.9801 54.1338 34.1219C54.4646 34.2518 54.9254 34.4054 55.5161 34.5826C56.3194 34.8189 56.9751 35.0552 57.4831 35.2914C57.991 35.5277 58.4282 35.8821 58.7944 36.3547C59.1606 36.8272 59.3437 37.4474 59.3437 38.2153C59.3437 38.8769 59.1724 39.4912 58.8298 40.0583C58.4872 40.6254 57.9851 41.0802 57.3236 41.4228C56.662 41.7536 55.8764 41.919 54.9667 41.919ZM65.8539 41.9544C64.9088 41.9544 64.0582 41.7477 63.3021 41.3342C62.546 40.9089 61.9494 40.3123 61.5123 39.5444C61.087 38.7765 60.8743 37.8905 60.8743 36.8863C60.8743 35.8821 61.0929 34.9961 61.53 34.2282C61.9789 33.4603 62.5873 32.8696 63.3552 32.4561C64.1231 32.0308 64.9796 31.8182 65.9247 31.8182C66.8698 31.8182 67.7263 32.0308 68.4942 32.4561C69.2621 32.8696 69.8646 33.4603 70.3018 34.2282C70.7507 34.9961 70.9751 35.8821 70.9751 36.8863C70.9751 37.8905 70.7448 38.7765 70.284 39.5444C69.8351 40.3123 69.2208 40.9089 68.4411 41.3342C67.6732 41.7477 66.8108 41.9544 65.8539 41.9544ZM65.8539 39.7925C66.3028 39.7925 66.7222 39.6862 67.112 39.4735C67.5137 39.249 67.8327 38.9183 68.0689 38.4812C68.3052 38.044 68.4234 37.5124 68.4234 36.8863C68.4234 35.953 68.1753 35.2383 67.6791 34.7421C67.1947 34.2341 66.5981 33.9801 65.8893 33.9801C65.1805 33.9801 64.5839 34.2341 64.0995 34.7421C63.627 35.2383 63.3907 35.953 63.3907 36.8863C63.3907 37.8196 63.6211 38.5402 64.0818 39.0482C64.5543 39.5444 65.145 39.7925 65.8539 39.7925ZM72.157 36.8863C72.157 35.8703 72.3638 34.9843 72.7773 34.2282C73.1907 33.4603 73.7637 32.8696 74.4962 32.4561C75.2286 32.0308 76.0674 31.8182 77.0125 31.8182C78.2293 31.8182 79.2335 32.1253 80.025 32.7396C80.8284 33.3422 81.3659 34.1927 81.6376 35.2914H78.9618C78.82 34.8661 78.5778 34.5353 78.2352 34.2991C77.9044 34.051 77.491 33.9269 76.9948 33.9269C76.286 33.9269 75.7248 34.1868 75.3113 34.7066C74.8978 35.2146 74.6911 35.9412 74.6911 36.8863C74.6911 37.8196 74.8978 38.5461 75.3113 39.0659C75.7248 39.5739 76.286 39.8279 76.9948 39.8279C77.999 39.8279 78.6546 39.379 78.9618 38.4812H81.6376C81.3659 39.5444 80.8284 40.3891 80.025 41.0152C79.2217 41.6413 78.2175 41.9544 77.0125 41.9544C76.0674 41.9544 75.2286 41.7477 74.4962 41.3342C73.7637 40.9089 73.1907 40.3182 72.7773 39.5621C72.3638 38.7942 72.157 37.9023 72.157 36.8863ZM84.7133 30.8081C84.2761 30.8081 83.9099 30.6722 83.6146 30.4005C83.331 30.117 83.1893 29.7685 83.1893 29.355C83.1893 28.9415 83.331 28.5989 83.6146 28.3272C83.9099 28.0437 84.2761 27.9019 84.7133 27.9019C85.1504 27.9019 85.5107 28.0437 85.7942 28.3272C86.0896 28.5989 86.2372 28.9415 86.2372 29.355C86.2372 29.7685 86.0896 30.117 85.7942 30.4005C85.5107 30.6722 85.1504 30.8081 84.7133 30.8081ZM85.936 31.9777V41.7949H83.4551V31.9777H85.936ZM87.7492 36.8508C87.7492 35.8585 87.9441 34.9784 88.3339 34.2105C88.7356 33.4426 89.2731 32.8519 89.9465 32.4384C90.6317 32.0249 91.3937 31.8182 92.2325 31.8182C92.965 31.8182 93.6029 31.9658 94.1463 32.2612C94.7016 32.5565 95.1446 32.9287 95.4754 33.3776V31.9777H97.974V41.7949H95.4754V40.3595C95.1564 40.8203 94.7134 41.2042 94.1463 41.5114C93.5911 41.8067 92.9472 41.9544 92.2148 41.9544C91.3878 41.9544 90.6317 41.7418 89.9465 41.3165C89.2731 40.8912 88.7356 40.2946 88.3339 39.5267C87.9441 38.747 87.7492 37.855 87.7492 36.8508ZM95.4754 36.8863C95.4754 36.2838 95.3573 35.7699 95.121 35.3446C94.8847 34.9075 94.5657 34.5767 94.1641 34.3522C93.7624 34.116 93.3312 33.9978 92.8704 33.9978C92.4097 33.9978 91.9844 34.11 91.5946 34.3345C91.2047 34.559 90.8857 34.8898 90.6376 35.3269C90.4014 35.7522 90.2832 36.2602 90.2832 36.8508C90.2832 37.4415 90.4014 37.9613 90.6376 38.4103C90.8857 38.8474 91.2047 39.1841 91.5946 39.4203C91.9962 39.6566 92.4215 39.7748 92.8704 39.7748C93.3312 39.7748 93.7624 39.6625 94.1641 39.4381C94.5657 39.2018 94.8847 38.871 95.121 38.4457C95.3573 38.0086 95.4754 37.4888 95.4754 36.8863ZM102.878 28.6816V41.7949H100.397V28.6816H102.878ZM118.164 33.1472C117.88 32.6274 117.49 32.2317 116.994 31.9599C116.498 31.6882 115.919 31.5524 115.258 31.5524C114.525 31.5524 113.875 31.7178 113.308 32.0485C112.741 32.3793 112.298 32.8519 111.979 33.4662C111.66 34.0805 111.501 34.7893 111.501 35.5927C111.501 36.4196 111.66 37.1403 111.979 37.7546C112.31 38.3689 112.765 38.8415 113.344 39.1723C113.923 39.503 114.596 39.6684 115.364 39.6684C116.309 39.6684 117.083 39.4203 117.685 38.9242C118.288 38.4162 118.684 37.7133 118.873 36.8154H114.62V34.9193H121.318V37.0812C121.153 37.9436 120.798 38.7411 120.255 39.4735C119.711 40.206 119.009 40.7967 118.146 41.2456C117.296 41.6827 116.339 41.9012 115.275 41.9012C114.082 41.9012 113.001 41.6354 112.032 41.1038C111.076 40.5604 110.319 39.8102 109.764 38.8533C109.221 37.8964 108.949 36.8095 108.949 35.5927C108.949 34.3759 109.221 33.289 109.764 32.3321C110.319 31.3633 111.076 30.6132 112.032 30.0815C113.001 29.5381 114.076 29.2664 115.258 29.2664C116.652 29.2664 117.863 29.609 118.89 30.2942C119.918 30.9676 120.627 31.9186 121.017 33.1472H118.164ZM127.513 41.9544C126.568 41.9544 125.717 41.7477 124.961 41.3342C124.205 40.9089 123.608 40.3123 123.171 39.5444C122.746 38.7765 122.533 37.8905 122.533 36.8863C122.533 35.8821 122.752 34.9961 123.189 34.2282C123.638 33.4603 124.246 32.8696 125.014 32.4561C125.782 32.0308 126.639 31.8182 127.584 31.8182C128.529 31.8182 129.385 32.0308 130.153 32.4561C130.921 32.8696 131.524 33.4603 131.961 34.2282C132.41 34.9961 132.634 35.8821 132.634 36.8863C132.634 37.8905 132.404 38.7765 131.943 39.5444C131.494 40.3123 130.88 40.9089 130.1 41.3342C129.332 41.7477 128.47 41.9544 127.513 41.9544ZM127.513 39.7925C127.962 39.7925 128.381 39.6862 128.771 39.4735C129.173 39.249 129.492 38.9183 129.728 38.4812C129.964 38.044 130.082 37.5124 130.082 36.8863C130.082 35.953 129.834 35.2383 129.338 34.7421C128.854 34.2341 128.257 33.9801 127.548 33.9801C126.839 33.9801 126.243 34.2341 125.759 34.7421C125.286 35.2383 125.05 35.953 125.05 36.8863C125.05 37.8196 125.28 38.5402 125.741 39.0482C126.213 39.5444 126.804 39.7925 127.513 39.7925ZM138.813 41.9544C137.868 41.9544 137.018 41.7477 136.262 41.3342C135.505 40.9089 134.909 40.3123 134.472 39.5444C134.046 38.7765 133.834 37.8905 133.834 36.8863C133.834 35.8821 134.052 34.9961 134.489 34.2282C134.938 33.4603 135.547 32.8696 136.315 32.4561C137.083 32.0308 137.939 31.8182 138.884 31.8182C139.829 31.8182 140.686 32.0308 141.454 32.4561C142.222 32.8696 142.824 33.4603 143.261 34.2282C143.71 34.9961 143.935 35.8821 143.935 36.8863C143.935 37.8905 143.704 38.7765 143.243 39.5444C142.795 40.3123 142.18 40.9089 141.401 41.3342C140.633 41.7477 139.77 41.9544 138.813 41.9544ZM138.813 39.7925C139.262 39.7925 139.682 39.6862 140.071 39.4735C140.473 39.249 140.792 38.9183 141.028 38.4812C141.265 38.044 141.383 37.5124 141.383 36.8863C141.383 35.953 141.135 35.2383 140.639 34.7421C140.154 34.2341 139.558 33.9801 138.849 33.9801C138.14 33.9801 137.543 34.2341 137.059 34.7421C136.586 35.2383 136.35 35.953 136.35 36.8863C136.35 37.8196 136.58 38.5402 137.041 39.0482C137.514 39.5444 138.104 39.7925 138.813 39.7925ZM145.116 36.8508C145.116 35.8585 145.311 34.9784 145.701 34.2105C146.103 33.4426 146.646 32.8519 147.332 32.4384C148.017 32.0249 148.779 31.8182 149.618 31.8182C150.255 31.8182 150.864 31.9599 151.443 32.2435C152.022 32.5152 152.482 32.8814 152.825 33.3422V28.6816H155.341V41.7949H152.825V40.3418C152.518 40.8262 152.087 41.216 151.531 41.5114C150.976 41.8067 150.332 41.9544 149.6 41.9544C148.773 41.9544 148.017 41.7418 147.332 41.3165C146.646 40.8912 146.103 40.2946 145.701 39.5267C145.311 38.747 145.116 37.855 145.116 36.8508ZM152.843 36.8863C152.843 36.2838 152.725 35.7699 152.488 35.3446C152.252 34.9075 151.933 34.5767 151.531 34.3522C151.13 34.116 150.698 33.9978 150.238 33.9978C149.777 33.9978 149.352 34.11 148.962 34.3345C148.572 34.559 148.253 34.8898 148.005 35.3269C147.769 35.7522 147.651 36.2602 147.651 36.8508C147.651 37.4415 147.769 37.9613 148.005 38.4103C148.253 38.8474 148.572 39.1841 148.962 39.4203C149.364 39.6566 149.789 39.7748 150.238 39.7748C150.698 39.7748 151.13 39.6625 151.531 39.4381C151.933 39.2018 152.252 38.871 152.488 38.4457C152.725 38.0086 152.843 37.4888 152.843 36.8863Z" fill="white"/>
</svg>
