<svg width="1440" height="202" viewBox="0 0 1440 202" fill="none" xmlns="http://www.w3.org/2000/svg">
<path fill-rule="evenodd" clip-rule="evenodd" d="M-406 149.567L-311.542 156.65C-217.083 163.733 -28.1667 177.899 160.75 188.524C349.667 199.149 538.583 206.232 727.5 199.149C916.417 192.066 1105.33 170.816 1294.25 163.733C1483.17 156.65 1672.08 163.733 1766.54 167.275L1861 170.816V0.819809H1766.54C1672.08 0.819809 1483.17 0.819809 1294.25 0.819809C1105.33 0.819809 916.417 0.819809 727.5 0.819809C538.583 0.819809 349.667 0.819809 160.75 0.819809C-28.1667 0.819809 -217.083 0.819809 -311.542 0.819809H-406V149.567Z" fill="#023E8A"/>
</svg>
