<svg width="1367" height="192" viewBox="0 0 1367 192" fill="none" xmlns="http://www.w3.org/2000/svg">
<path fill-rule="evenodd" clip-rule="evenodd" d="M-386.198 141.765L-296.568 148.486C-206.937 155.207 -27.6761 168.65 151.585 178.731C330.846 188.813 510.107 195.534 689.368 188.813C868.629 182.092 1047.89 161.928 1227.15 155.207C1406.41 148.486 1585.67 155.207 1675.3 158.568L1764.93 161.928V0.620636H1675.3C1585.67 0.620636 1406.41 0.620636 1227.15 0.620636C1047.89 0.620636 868.629 0.620636 689.368 0.620636C510.107 0.620636 330.846 0.620636 151.585 0.620636C-27.6761 0.620636 -206.937 0.620636 -296.568 0.620636H-386.198V141.765Z" fill="#44746C"/>
</svg>
