<svg width="40" height="42" viewBox="0 0 40 42" fill="none" xmlns="http://www.w3.org/2000/svg">
<path d="M16.1797 16.7148C14.9004 16.7148 13.8926 17.743 13.8926 18.9984C13.8926 20.2494 14.924 21.2819 16.1797 21.2819C17.4566 21.2819 18.4644 20.2494 18.4644 18.9984C18.4904 17.7408 17.4566 16.7148 16.1797 16.7148ZM24.3651 16.7148C23.0859 16.7148 22.078 17.743 22.078 18.9984C22.078 20.2494 23.1095 21.2819 24.3651 21.2819C25.642 21.2819 26.6499 20.2494 26.6499 18.9984C26.6475 17.7408 25.642 16.7148 24.3651 16.7148Z" fill="#44746C"/>
<path d="M35.2613 0.0449219H5.21266C4.60762 0.0463413 4.00882 0.157032 3.45043 0.370674C2.89205 0.584316 2.38502 0.896725 1.95829 1.29006C1.53156 1.6834 1.19349 2.14997 0.963389 2.66312C0.733285 3.17628 0.615651 3.72597 0.617203 4.28081V32.0814C0.617203 34.4256 2.68008 36.3173 5.21266 36.3173H30.6399L29.448 32.51L32.3204 34.958L35.0324 37.261L39.8568 41.1701V4.28081C39.8583 3.72597 39.7407 3.17628 39.5106 2.66312C39.2805 2.14997 38.9424 1.6834 38.5157 1.29006C38.089 0.896725 37.5819 0.584316 37.0235 0.370674C36.4652 0.157032 35.8663 0.0463413 35.2613 0.0449219V0.0449219ZM26.6038 26.8997C26.6038 26.8997 25.7966 26.0166 25.1263 25.2308C28.0625 24.4689 29.1836 22.785 29.1836 22.785C28.2631 23.3391 27.3898 23.733 26.6038 24.0014C23.7424 25.0996 20.5913 25.3993 17.5451 24.8629C16.4195 24.6601 15.3165 24.3631 14.2501 23.9754C13.6877 23.7795 13.1411 23.5473 12.6145 23.2806C12.546 23.2352 12.4799 23.2179 12.4139 23.1768C12.3785 23.1613 12.3471 23.1392 12.3218 23.1118C11.9182 22.9084 11.694 22.7655 11.694 22.7655C11.694 22.7655 12.7703 24.4105 15.6191 25.1919C14.9464 25.9711 14.1156 26.8997 14.1156 26.8997C9.1614 26.7546 7.28026 23.7742 7.28026 23.7742C7.28026 17.153 10.5091 11.7872 10.5091 11.7872C13.738 9.56432 16.8087 9.62709 16.8087 9.62709L17.0329 9.87384C12.9968 10.9453 11.1346 12.5686 11.1346 12.5686C11.1346 12.5686 11.6302 12.3219 12.4587 11.9734C14.8567 11.008 16.7615 10.7396 17.5475 10.6769C17.682 10.6574 17.7953 10.6357 17.9298 10.6357C21.8177 10.1553 25.771 10.8328 29.2072 12.5686C29.2072 12.5686 27.4346 11.0275 23.6228 9.95825L23.9367 9.62925C23.9367 9.62925 27.0098 9.56648 30.2363 11.7894C30.2363 11.7894 33.4651 17.1552 33.4651 23.7763C33.4651 23.7741 31.5604 26.7546 26.6038 26.8997V26.8997Z" fill="#44746C"/>
</svg>
