<svg width="55" height="59" viewBox="0 0 55 59" fill="none" xmlns="http://www.w3.org/2000/svg">
<path d="M21.8946 24.1171C20.116 24.1171 18.7148 25.5465 18.7148 27.2919C18.7148 29.0312 20.1489 30.4667 21.8946 30.4667C23.6699 30.4667 25.0711 29.0312 25.0711 27.2919C25.1072 25.5435 23.6699 24.1171 21.8946 24.1171ZM33.2748 24.1171C31.4963 24.1171 30.0951 25.5465 30.0951 27.2919C30.0951 29.0312 31.5291 30.4667 33.2748 30.4667C35.0501 30.4667 36.4513 29.0312 36.4513 27.2919C36.448 25.5435 35.0501 24.1171 33.2748 24.1171Z" fill="white"/>
<path d="M48.4245 0.938965H6.64787C5.80669 0.940938 4.97418 1.09483 4.19785 1.39186C3.42153 1.68889 2.7166 2.12323 2.12332 2.67009C1.53004 3.21695 1.06003 3.86562 0.740113 4.57905C0.4202 5.29249 0.256653 6.05673 0.25881 6.82813V45.4794C0.25881 48.7384 3.12683 51.3685 6.64787 51.3685H41.9994L40.3422 46.0752L44.3358 49.4787L48.1062 52.6806L54.8136 58.1153V6.82813C54.8158 6.05673 54.6522 5.29249 54.3323 4.57905C54.0124 3.86562 53.5424 3.21695 52.9491 2.67009C52.3558 2.12323 51.6509 1.68889 50.8746 1.39186C50.0982 1.09483 49.2657 0.940938 48.4245 0.938965ZM36.388 38.2751C36.388 38.2751 35.2658 37.0473 34.3338 35.955C38.416 34.8957 39.9747 32.5545 39.9747 32.5545C38.6949 33.3249 37.4808 33.8725 36.388 34.2457C32.4098 35.7725 28.0289 36.1891 23.7937 35.4434C22.2287 35.1615 20.6953 34.7485 19.2127 34.2096C18.4308 33.9372 17.6709 33.6144 16.9386 33.2436C16.8435 33.1804 16.7516 33.1563 16.6597 33.0992C16.6105 33.0777 16.5669 33.047 16.5317 33.0089C15.9706 32.726 15.6588 32.5274 15.6588 32.5274C15.6588 32.5274 17.1552 34.8145 21.116 35.9008C20.1807 36.9841 19.0257 38.2751 19.0257 38.2751C12.1378 38.0735 9.52246 33.9297 9.52246 33.9297C9.52246 24.7243 14.0115 17.2643 14.0115 17.2643C18.5006 14.1738 22.7698 14.2611 22.7698 14.2611L23.0816 14.6041C17.4702 16.0937 14.8811 18.3507 14.8811 18.3507C14.8811 18.3507 15.5702 18.0076 16.7221 17.5231C20.056 16.181 22.7042 15.8078 23.7969 15.7206C23.984 15.6935 24.1415 15.6634 24.3286 15.6634C29.7339 14.9954 35.2302 15.9374 40.0075 18.3507C40.0075 18.3507 37.5431 16.2081 32.2435 14.7215L32.6799 14.2641C32.6799 14.2641 36.9524 14.1768 41.4382 17.2673C41.4382 17.2673 45.9273 24.7273 45.9273 33.9327C45.9273 33.9297 43.2792 38.0735 36.388 38.2751Z" fill="white"/>
</svg>
