<svg width="41" height="39" viewBox="0 0 41 39" fill="none" xmlns="http://www.w3.org/2000/svg">
<path d="M35.9301 0.650391H5.26544C2.85607 0.650391 0.884766 2.5205 0.884766 4.8062V33.8969C0.884766 36.1846 2.85607 38.0527 5.26544 38.0527H20.5978V23.5073H16.2171V18.3645H20.5978V14.1048C20.5978 9.60823 23.2525 6.44982 28.8466 6.44982L32.7958 6.45398V11.8669H30.1739C27.9967 11.8669 27.1688 13.417 27.1688 14.8549V18.3666H32.7936L31.5495 23.5073H27.1688V38.0527H35.9301C38.3395 38.0527 40.3108 36.1846 40.3108 33.8969V4.8062C40.3108 2.5205 38.3395 0.650391 35.9301 0.650391Z" fill="#44746C"/>
</svg>
