<svg width="55" height="52" viewBox="0 0 55 52" fill="none" xmlns="http://www.w3.org/2000/svg">
<path d="M48.7236 0H6.09045C2.7407 0 0 2.60002 0 5.77782V46.2226C0 49.4033 2.7407 52.0004 6.09045 52.0004H27.407V31.778H21.3166V24.628H27.407V18.7057C27.407 12.4541 31.0978 8.06295 38.8753 8.06295L44.3659 8.06873V15.5943H40.7207C37.6938 15.5943 36.5427 17.7495 36.5427 19.7486V24.6309H44.3628L42.6331 31.778H36.5427V52.0004H48.7236C52.0733 52.0004 54.814 49.4033 54.814 46.2226V5.77782C54.814 2.60002 52.0733 0 48.7236 0Z" fill="white"/>
</svg>
