<svg width="1365" height="93" viewBox="0 0 1365 93" fill="none" xmlns="http://www.w3.org/2000/svg">
<path fill-rule="evenodd" clip-rule="evenodd" d="M-77.7188 68.2034L-17.0608 71.4209C43.5972 74.6383 164.913 81.0731 286.229 85.8993C407.545 90.7254 528.861 93.9428 650.177 90.7254C771.493 87.508 892.809 77.8557 1014.12 74.6383C1135.44 71.4209 1256.76 74.6383 1317.41 76.247L1378.07 77.8557V0.637527H1317.41C1256.76 0.637527 1135.44 0.637527 1014.12 0.637527C892.809 0.637527 771.493 0.637527 650.177 0.637527C528.861 0.637527 407.545 0.637527 286.229 0.637527C164.913 0.637527 43.5972 0.637527 -17.0608 0.637527H-77.7188V68.2034Z" fill="#DCECE3"/>
</svg>
