<svg width="1367" height="229" viewBox="0 0 1367 229" fill="none" xmlns="http://www.w3.org/2000/svg">
<path fill-rule="evenodd" clip-rule="evenodd" d="M-6.61248 173.483L52.306 180.171C111.224 186.859 229.061 200.235 346.852 209.903C464.643 219.572 582.388 225.532 699.95 216.66C817.511 207.788 934.889 184.083 1052.45 175.211C1170.01 166.339 1287.76 172.299 1346.63 175.279L1405.5 178.259L1403.3 0.271625L1344.47 0.99962C1285.65 1.72761 1167.99 3.1836 1050.34 4.63959C932.687 6.09558 815.033 7.55157 697.38 9.00756C579.727 10.4635 462.074 11.9195 344.42 13.3755C226.767 14.8315 109.114 16.2875 50.2869 17.0155L-8.53979 17.7435L-6.61248 173.483Z" fill="#F5F5F5"/>
</svg>
