<svg width="40" height="39" viewBox="0 0 40 39" fill="none" xmlns="http://www.w3.org/2000/svg">
<path d="M19.825 14.5023C18.8914 14.5026 17.9788 14.7688 17.2027 15.267C16.4266 15.7653 15.8218 16.4733 15.4648 17.3016C15.1078 18.1299 15.0145 19.0412 15.1969 19.9203C15.3792 20.7995 15.829 21.607 16.4893 22.2407C17.1496 22.8745 17.9907 23.306 18.9064 23.4807C19.8221 23.6555 20.7712 23.5656 21.6338 23.2225C22.4963 22.8794 23.2335 22.2984 23.7521 21.5531C24.2708 20.8077 24.5476 19.9314 24.5476 19.035C24.5467 17.8328 24.0487 16.6802 23.1632 15.8303C22.2777 14.9804 21.0771 14.5027 19.825 14.5023V14.5023ZM30.8624 11.0182C30.6221 10.4334 30.2592 9.9023 29.7962 9.45777C29.3332 9.01324 28.78 8.66479 28.171 8.43403C26.3124 7.72957 21.8872 7.88763 19.825 7.88763C17.7628 7.88763 13.342 7.72362 11.4781 8.43403C10.8691 8.66479 10.3159 9.01324 9.85294 9.45777C9.38996 9.9023 9.02705 10.4334 8.78672 11.0182C8.05391 12.8027 8.21764 17.0559 8.21764 19.0342C8.21764 21.0124 8.05391 25.2605 8.79026 27.0509C9.03059 27.6357 9.3935 28.1669 9.85648 28.6114C10.3195 29.0559 10.8726 29.4044 11.4817 29.6351C13.3403 30.3396 17.7655 30.1815 19.8285 30.1815C21.8916 30.1815 26.3106 30.3455 28.1745 29.6351C28.7836 29.4044 29.3367 29.0559 29.7997 28.6114C30.2627 28.1669 30.6256 27.6357 30.8659 27.0509C31.6049 25.2664 31.435 21.0133 31.435 19.035C31.435 17.0567 31.6049 12.8095 30.8659 11.0191L30.8624 11.0182ZM19.825 26.0032C18.3896 26.0032 16.9865 25.5945 15.793 24.8288C14.5996 24.0631 13.6694 22.9749 13.1201 21.7016C12.5708 20.4283 12.4271 19.0273 12.7071 17.6756C12.9871 16.3239 13.6783 15.0823 14.6933 14.1078C15.7082 13.1332 17.0014 12.4696 18.4092 12.2007C19.817 11.9319 21.2762 12.0698 22.6023 12.5973C23.9284 13.1247 25.0618 14.0178 25.8593 15.1637C26.6567 16.3096 27.0824 17.6568 27.0824 19.035C27.0835 19.9504 26.8966 20.857 26.5323 21.7029C26.168 22.5488 25.6335 23.3175 24.9593 23.9647C24.2852 24.612 23.4847 25.1252 22.6037 25.475C21.7226 25.8248 20.7784 26.0043 19.825 26.0032V26.0032ZM27.3815 13.401C27.0464 13.4011 26.7188 13.3059 26.4401 13.1273C26.1615 12.9487 25.9442 12.6947 25.8159 12.3975C25.6875 12.1003 25.6538 11.7733 25.7191 11.4577C25.7844 11.1422 25.9456 10.8523 26.1825 10.6247C26.4194 10.3972 26.7212 10.2422 27.0498 10.1793C27.3784 10.1165 27.7191 10.1487 28.0287 10.2718C28.3383 10.3948 28.6029 10.6033 28.7891 10.8708C28.9752 11.1383 29.0746 11.4528 29.0746 11.7745C29.0755 11.9882 29.0325 12.1999 28.948 12.3975C28.8636 12.5952 28.7393 12.7749 28.5823 12.9263C28.4253 13.0777 28.2388 13.1979 28.0333 13.2799C27.8279 13.362 27.6076 13.4043 27.3851 13.4044L27.3815 13.401ZM35.4018 0H4.24821C3.12152 0 2.04097 0.429743 1.24427 1.19469C0.447578 1.95964 0 2.99713 0 4.07893L0 33.9911C0 35.0729 0.447578 36.1104 1.24427 36.8753C2.04097 37.6403 3.12152 38.07 4.24821 38.07H35.4018C36.5285 38.07 37.609 37.6403 38.4057 36.8753C39.2024 36.1104 39.65 35.0729 39.65 33.9911V4.07893C39.65 2.99713 39.2024 1.95964 38.4057 1.19469C37.609 0.429743 36.5285 0 35.4018 0V0ZM33.8866 24.6435C33.7724 26.8215 33.2547 28.7513 31.5988 30.337C29.9428 31.9227 27.9347 32.43 25.669 32.5337C23.3315 32.6603 16.3238 32.6603 13.9864 32.5337C11.718 32.4241 9.71514 31.9261 8.05656 30.337C6.39799 28.7479 5.8767 26.8173 5.76872 24.6435C5.63685 22.3984 5.63685 15.669 5.76872 13.4265C5.88289 11.2485 6.39445 9.31865 8.05656 7.73297C9.71868 6.14729 11.7268 5.64592 13.9864 5.54224C16.3238 5.41563 23.3315 5.41563 25.669 5.54224C27.9373 5.65187 29.9464 6.14983 31.5988 7.73892C33.2511 9.328 33.7786 11.2587 33.8866 13.4367C34.0185 15.6733 34.0185 22.3967 33.8866 24.6435Z" fill="#44746C"/>
</svg>
