<svg width="1440" height="230" viewBox="0 0 1440 230" fill="none" xmlns="http://www.w3.org/2000/svg">
<path fill-rule="evenodd" clip-rule="evenodd" d="M-82 170.089L-18 178.182C46 186.275 174 202.462 302 214.602C430 226.742 558 234.836 686 226.742C814 218.649 942 194.369 1070 186.275C1198 178.182 1326 186.275 1390 190.322L1454 194.369V0.12764H1390C1326 0.12764 1198 0.12764 1070 0.12764C942 0.12764 814 0.12764 686 0.12764C558 0.12764 430 0.12764 302 0.12764C174 0.12764 46 0.12764 -18 0.12764H-82V170.089Z" fill="#CAF0F8"/>
</svg>
