<svg width="1456" height="96" viewBox="0 0 1456 96" fill="none" xmlns="http://www.w3.org/2000/svg">
<path fill-rule="evenodd" clip-rule="evenodd" d="M0 71.5657L60.658 74.7832C121.316 78.0006 242.632 84.4354 363.948 89.2616C485.264 94.0877 606.58 97.3051 727.896 94.0877C849.212 90.8703 970.527 81.218 1091.84 78.0006C1213.16 74.7832 1334.48 78.0006 1395.13 79.6093L1455.79 81.218V3.99983H1395.13C1334.48 3.99983 1213.16 3.99983 1091.84 3.99983C970.527 3.99983 849.212 3.99983 727.896 3.99983C606.58 3.99983 485.264 3.99983 363.948 3.99983C242.632 3.99983 121.316 3.99983 60.658 3.99983H0V71.5657Z" fill="#DCECE3"/>
<rect width="1456" height="23" fill="#DCECE3"/>
</svg>
