<svg width="54" height="52" viewBox="0 0 54 52" fill="none" xmlns="http://www.w3.org/2000/svg">
<path d="M49.9724 0H3.83202C1.7178 0 0 1.65242 0 3.6809V47.3731C0 49.4016 1.7178 51.054 3.83202 51.054H49.9724C52.0867 51.054 53.8165 49.4016 53.8165 47.3731V3.6809C53.8165 1.65242 52.0867 0 49.9724 0ZM16.2651 43.7606H8.2887V19.396H16.2771V43.7606H16.2651ZM12.2769 16.0683C9.7182 16.0683 7.65203 14.0968 7.65203 11.6809C7.65203 9.26494 9.7182 7.29343 12.2769 7.29343C14.8236 7.29343 16.9017 9.26494 16.9017 11.6809C16.9017 14.1082 14.8356 16.0683 12.2769 16.0683ZM46.1644 43.7606H38.1881V31.9088C38.1881 29.0826 38.128 25.4472 34.0437 25.4472C29.8874 25.4472 29.2507 28.5242 29.2507 31.7036V43.7606H21.2743V19.396H28.9264V22.7236H29.0345C30.1036 20.8091 32.7103 18.792 36.5904 18.792C44.6629 18.792 46.1644 23.8404 46.1644 30.4045V43.7606Z" fill="white"/>
</svg>
