<svg width="40" height="37" viewBox="0 0 40 37" fill="none" xmlns="http://www.w3.org/2000/svg">
<path d="M36.6409 0.0888672H3.45352C1.93283 0.0888672 0.697266 1.2774 0.697266 2.73643V34.1629C0.697266 35.6219 1.93283 36.8104 3.45352 36.8104H36.6409C38.1616 36.8104 39.4058 35.6219 39.4058 34.1629V2.73643C39.4058 1.2774 38.1616 0.0888672 36.6409 0.0888672ZM12.3962 31.5645H6.65907V14.0398H12.4049V31.5645H12.3962ZM9.52764 11.6463C7.68726 11.6463 6.20113 10.2283 6.20113 8.49057C6.20113 6.75285 7.68726 5.33481 9.52764 5.33481C11.3594 5.33481 12.8542 6.75285 12.8542 8.49057C12.8542 10.2365 11.368 11.6463 9.52764 11.6463V11.6463ZM33.9019 31.5645H28.1648V23.0398C28.1648 21.007 28.1216 18.3923 25.1839 18.3923C22.1943 18.3923 21.7364 20.6054 21.7364 22.8923V31.5645H15.9992V14.0398H21.5031V16.4332H21.5809C22.3498 15.0562 24.2248 13.6054 27.0156 13.6054C32.8219 13.6054 33.9019 17.2365 33.9019 21.9579V31.5645V31.5645Z" fill="#44746C"/>
</svg>
