<svg width="40" height="39" viewBox="0 0 40 39" fill="none" xmlns="http://www.w3.org/2000/svg">
<rect width="39.65" height="38.07" rx="5" fill="#44746C"/>
<path d="M15.2789 22.5777C15.1855 22.7679 15.1855 22.9557 15.1855 23.1447C15.2789 23.7479 15.8015 24.1912 16.4129 24.1831H17.9225V29.7551C17.9225 30.3221 17.4512 30.7934 16.8842 30.7934H13.6735C13.3989 30.7907 13.1363 30.6802 12.9423 30.4858C12.7484 30.2914 12.6385 30.0285 12.6364 29.7539V24.1842H7.15769C6.30835 24.1842 5.74135 23.3337 6.11935 22.5777L14.2394 7.84624C14.3469 7.65225 14.5044 7.49057 14.6955 7.378C14.8866 7.26542 15.1043 7.20605 15.3261 7.20605C15.5479 7.20605 15.7656 7.26542 15.9568 7.378C16.1479 7.49057 16.3053 7.65225 16.4129 7.84624L19.8114 14.3621L15.2789 22.5777V22.5777ZM33.8814 22.5777L25.7614 7.84624C25.6537 7.65253 25.4963 7.49112 25.3053 7.37874C25.1143 7.26637 24.8968 7.20711 24.6752 7.20711C24.4536 7.20711 24.236 7.26637 24.0451 7.37874C23.8541 7.49112 23.6966 7.65253 23.589 7.84624L20.0949 14.3632L24.6274 22.5766C24.7219 22.7679 24.7219 22.9569 24.7219 23.1447C24.6285 23.7479 24.1047 24.1912 23.4945 24.1831H21.9825V29.7551C21.9884 30.3267 22.4492 30.7899 23.0209 30.7934H26.4205C26.6954 30.791 26.9583 30.6809 27.1529 30.4867C27.3475 30.2926 27.4581 30.0299 27.4612 29.7551V24.1842H32.8419C33.6935 24.1842 34.2582 23.3337 33.8802 22.5777H33.8814Z" fill="#DCECE3"/>
</svg>
