<svg width="40" height="39" viewBox="0 0 40 39" fill="none" xmlns="http://www.w3.org/2000/svg">
<path d="M38.4044 0.650391H1.924C1.04668 0.650391 0.337891 1.33093 0.337891 2.17328V37.1998C0.337891 38.0421 1.04668 38.7226 1.924 38.7226H38.4044C39.2817 38.7226 39.9905 38.0421 39.9905 37.1998V2.17328C39.9905 1.33093 39.2817 0.650391 38.4044 0.650391ZM21.0068 10.1399C21.0068 8.81689 22.1221 7.74135 23.5 7.74135C24.8779 7.74135 25.9931 8.81689 25.9931 10.1399V16.536C25.9931 17.8591 24.8779 18.9346 23.5 18.9346C22.1221 18.9346 21.0068 17.8591 21.0068 16.536V10.1399ZM12.7046 22.9322C12.7046 24.2552 11.5893 25.3307 10.2114 25.3307C9.55217 25.3307 8.91773 25.0785 8.44685 24.6264C7.98093 24.1743 7.71824 23.5651 7.71824 22.9322C7.71824 21.6092 8.83347 20.5336 10.2114 20.5336H12.7046V22.9322ZM19.3464 29.3283C19.3464 30.6513 18.2311 31.7269 16.8532 31.7269C15.4753 31.7269 14.36 30.6513 14.36 29.3283V22.9322C14.36 21.6092 15.4753 20.5336 16.8532 20.5336C17.5124 20.5336 18.1469 20.7859 18.6178 21.238C19.0886 21.6901 19.3464 22.2992 19.3464 22.9322V29.3283ZM16.8582 18.9346H10.2164C8.83842 18.9346 7.72319 17.8591 7.72319 16.536C7.72319 15.213 8.83842 14.1375 10.2164 14.1375H16.8582C18.2361 14.1375 19.3513 15.213 19.3513 16.536C19.3464 17.8638 18.2311 18.9346 16.8582 18.9346ZM16.8582 12.5385C16.1989 12.5385 15.5645 12.2862 15.0936 11.8341C14.6227 11.382 14.365 10.7776 14.365 10.1399C14.365 8.81689 15.4802 7.74135 16.8582 7.74135C18.2361 7.74135 19.3513 8.81689 19.3513 10.1399V12.5385H16.8582ZM23.5 31.7269C22.1221 31.7269 21.0068 30.6513 21.0068 29.3283V26.9298H23.5C24.8779 26.9298 25.9931 28.0053 25.9931 29.3283C25.9931 30.6513 24.8779 31.7269 23.5 31.7269ZM30.1418 25.3307H23.5C22.8408 25.3307 22.2063 25.0785 21.7354 24.6264C21.2695 24.1743 21.0068 23.5651 21.0068 22.9322C21.0068 21.6092 22.1221 20.5336 23.5 20.5336H30.1418C31.5197 20.5336 32.635 21.6092 32.635 22.9322C32.635 24.2552 31.5197 25.3307 30.1418 25.3307ZM30.1418 18.9346H27.6486V16.536C27.6486 15.213 28.7639 14.1375 30.1418 14.1375C31.5197 14.1375 32.635 15.213 32.635 16.536C32.635 17.8591 31.5197 18.9346 30.1418 18.9346Z" fill="#44746C"/>
</svg>
