<svg width="56" height="53" viewBox="0 0 56 53" fill="none" xmlns="http://www.w3.org/2000/svg">
<path d="M52.9239 0H2.20516C0.985432 0 0 0.946157 0 2.11728V50.8146C0 51.9857 0.985432 52.9319 2.20516 52.9319H52.9239C54.1436 52.9319 55.1291 51.9857 55.1291 50.8146V2.11728C55.1291 0.946157 54.1436 0 52.9239 0ZM28.736 13.1933C28.736 11.3539 30.2865 9.85856 32.2023 9.85856C34.118 9.85856 35.6685 11.3539 35.6685 13.1933V22.0858C35.6685 23.9252 34.118 25.4205 32.2023 25.4205C30.2865 25.4205 28.736 23.9252 28.736 22.0858V13.1933ZM17.1934 30.9784C17.1934 32.8178 15.6429 34.3131 13.7271 34.3131C12.8106 34.3131 11.9286 33.9624 11.2739 33.3339C10.6261 32.7053 10.2609 31.8584 10.2609 30.9784C10.2609 29.139 11.8114 27.6437 13.7271 27.6437H17.1934V30.9784ZM26.4275 39.8709C26.4275 41.7103 24.877 43.2057 22.9613 43.2057C21.0455 43.2057 19.495 41.7103 19.495 39.8709V30.9784C19.495 29.139 21.0455 27.6437 22.9613 27.6437C23.8778 27.6437 24.7598 27.9943 25.4145 28.6229C26.0692 29.2515 26.4275 30.0984 26.4275 30.9784V39.8709ZM22.9681 25.4205H13.734C11.8183 25.4205 10.2678 23.9252 10.2678 22.0858C10.2678 20.2464 11.8183 18.7511 13.734 18.7511H22.9681C24.8839 18.7511 26.4344 20.2464 26.4344 22.0858C26.4275 23.9318 24.877 25.4205 22.9681 25.4205ZM22.9681 16.528C22.0516 16.528 21.1696 16.1773 20.5149 15.5487C19.8602 14.9202 19.5019 14.0799 19.5019 13.1933C19.5019 11.3539 21.0524 9.85856 22.9681 9.85856C24.8839 9.85856 26.4344 11.3539 26.4344 13.1933V16.528H22.9681ZM32.2023 43.2057C30.2865 43.2057 28.736 41.7103 28.736 39.8709V36.5362H32.2023C34.118 36.5362 35.6685 38.0316 35.6685 39.8709C35.6685 41.7103 34.118 43.2057 32.2023 43.2057ZM41.4364 34.3131H32.2023C31.2857 34.3131 30.4037 33.9624 29.749 33.3339C29.1013 32.7053 28.736 31.8584 28.736 30.9784C28.736 29.139 30.2865 27.6437 32.2023 27.6437H41.4364C43.3521 27.6437 44.9026 29.139 44.9026 30.9784C44.9026 32.8178 43.3521 34.3131 41.4364 34.3131ZM41.4364 25.4205H37.9701V22.0858C37.9701 20.2464 39.5206 18.7511 41.4364 18.7511C43.3521 18.7511 44.9026 20.2464 44.9026 22.0858C44.9026 23.9252 43.3521 25.4205 41.4364 25.4205Z" fill="white"/>
</svg>
